<?xml version="1.0" standalone="no"?>
<!DOCTYPE svg PUBLIC "-//W3C//DTD SVG 20010904//EN"
 "http://www.w3.org/TR/2001/REC-SVG-20010904/DTD/svg10.dtd">
<svg version="1.0" xmlns="http://www.w3.org/2000/svg"
 width="512.000000pt" height="512.000000pt" viewBox="0 0 512.000000 512.000000"
 preserveAspectRatio="xMidYMid meet">
<metadata>
Created by potrace 1.14, written by Peter Selinger 2001-2017
</metadata>
<g transform="translate(0.000000,512.000000) scale(0.100000,-0.100000)"
fill="#000000" stroke="none">
<path d="M2460 4755 c-80 -23 -1676 -925 -1745 -987 -28 -26 -66 -73 -82 -105
-27 -50 -53 -144 -53 -191 0 -12 185 -13 1275 -6 1025 6 1277 4 1290 -6 20
-16 22 -168 3 -175 -7 -2 -586 -8 -1286 -14 -701 -5 -1275 -11 -1277 -13 -2
-2 -1 -145 2 -318 l6 -315 381 3 c210 1 400 5 424 8 l42 5 0 124 c0 113 2 125
19 135 31 16 207 13 224 -4 11 -12 15 -80 19 -368 3 -194 5 -354 4 -355 0 -1
-58 -4 -128 -8 l-128 -8 0 136 c0 87 -4 138 -11 143 -6 3 -199 3 -430 -1
l-419 -8 0 -320 0 -320 738 6 c854 8 772 19 772 -100 0 -55 -3 -72 -16 -77 -9
-3 -228 -6 -487 -6 -260 0 -590 -3 -735 -7 l-263 -6 6 -26 c14 -61 68 -152
113 -192 44 -39 1522 -922 1662 -993 36 -18 78 -36 95 -40 57 -14 171 -7 225
13 83 32 1686 901 1729 937 78 67 121 156 136 281 l6 53 -294 0 c-162 0 -571
-3 -910 -7 l-617 -6 0 -132 0 -133 -31 -6 c-17 -3 -73 -6 -124 -6 l-92 0 -7
46 c-3 26 -6 192 -6 370 l0 324 120 0 c108 0 120 -2 130 -19 5 -11 10 -69 10
-129 0 -94 2 -111 17 -116 19 -8 1413 1 1651 10 l152 6 0 315 0 315 -1152 -9
c-634 -4 -1191 -8 -1238 -8 l-85 0 -3 77 c-5 130 -121 115 940 122 508 3 1061
9 1231 12 l307 6 0 314 0 314 -375 0 c-206 0 -376 -3 -376 -7 -1 -5 -4 -66 -8
-138 l-6 -130 -119 -3 c-89 -2 -121 1 -128 10 -4 7 -8 174 -8 371 l0 357 120
0 c108 0 120 -2 130 -19 5 -11 10 -69 10 -129 0 -91 3 -111 16 -116 21 -8 402
-8 594 1 l152 6 -5 55 c-8 79 -57 171 -121 229 -40 36 -254 158 -862 490 -445
243 -835 454 -867 468 -73 34 -178 42 -257 20z"/>
</g>
</svg>
